<?xml version="1.0" standalone="no"?>
<!DOCTYPE svg PUBLIC "-//W3C//DTD SVG 20010904//EN"
 "http://www.w3.org/TR/2001/REC-SVG-20010904/DTD/svg10.dtd">
<svg version="1.0" xmlns="http://www.w3.org/2000/svg"
 width="777.000000pt" height="777.000000pt" viewBox="0 0 777.000000 777.000000"
 preserveAspectRatio="xMidYMid meet">
<metadata>
Created by potrace 1.14, written by Peter Selinger 2001-2017
</metadata>
<g transform="translate(0.000000,777.000000) scale(0.100000,-0.100000)"
fill="#000000" stroke="none">
<path d="M3700 5319 c-83 -12 -109 -18 -180 -41 -64 -20 -180 -74 -180 -83 0
-2 15 -19 33 -37 77 -76 128 -174 152 -292 11 -52 12 -137 3 -184 -4 -26 -10
-56 -12 -67 -7 -38 -47 -135 -56 -135 -26 0 -183 168 -177 189 1 4 -4 15 -10
26 -13 23 -41 130 -41 160 -4 133 -2 159 18 248 9 42 5 44 -30 20 -109 -75
-233 -225 -300 -358 -14 -27 -28 -51 -32 -53 -4 -2 -4 -10 -1 -17 3 -10 10
-12 21 -6 28 14 92 3 158 -28 76 -35 177 -134 216 -210 48 -91 53 -212 13
-308 -13 -30 -12 -37 12 -80 85 -159 119 -236 158 -358 28 -90 36 -116 37
-125 0 -3 4 -16 9 -29 5 -13 12 -40 15 -60 3 -20 9 -47 14 -61 5 -14 11 -45
15 -70 9 -69 9 -69 96 -84 19 -3 44 -8 57 -10 46 -10 50 -2 45 102 -7 148 -2
137 -65 136 -30 -1 -64 -4 -75 -8 -17 -6 -22 -2 -27 21 -7 37 -15 82 -21 129
-3 22 -8 50 -11 64 -10 42 -13 431 -4 495 5 33 12 83 15 110 4 28 10 66 15 85
5 19 11 49 14 66 3 17 12 49 20 72 9 23 15 43 15 45 -1 12 44 134 77 205 19
41 34 78 34 83 0 5 4 9 9 9 5 0 14 13 19 29 23 65 194 293 263 350 40 33 36
47 -13 55 -67 11 -257 14 -318 5z"/>
<path d="M4126 5238 c-10 -24 -24 -56 -31 -73 -35 -78 -115 -325 -129 -399 -3
-11 -11 -50 -20 -86 -8 -36 -17 -78 -20 -95 -3 -16 -8 -41 -11 -55 -2 -13 -7
-42 -10 -65 -4 -22 -8 -53 -11 -70 -15 -103 -25 -201 -29 -315 -2 -47 -4 -86
-5 -87 -7 -13 6 -421 15 -463 3 -14 8 -38 10 -55 3 -16 8 -37 10 -45 2 -8 7
-33 10 -55 2 -22 7 -51 11 -65 3 -14 6 -30 6 -36 1 -10 66 -11 94 0 7 3 12 30
13 73 1 37 3 82 5 98 9 84 20 181 21 185 1 3 5 25 9 50 5 25 10 54 12 65 2 11
7 34 10 50 27 152 115 430 197 625 18 44 17 54 -10 115 -37 84 -35 134 10 226
41 83 116 219 133 240 6 8 16 29 24 47 7 17 16 32 21 32 5 0 9 8 9 19 0 22
-94 85 -202 136 -116 54 -122 54 -142 3z"/>
<path d="M3315 5098 c3 -40 28 -192 40 -248 4 -14 8 -36 11 -50 21 -96 63
-231 76 -245 13 -14 3 80 -22 210 -18 88 -20 100 -24 122 -3 13 -7 26 -10 31
-3 5 -8 24 -11 43 -10 53 -19 80 -36 111 -5 10 -9 27 -9 37 0 11 -4 22 -10 26
-5 3 -8 -11 -5 -37z"/>
<path d="M4473 5032 c-12 -26 -48 -101 -80 -167 -31 -66 -58 -124 -58 -130 -2
-13 15 -35 26 -35 5 0 48 79 95 176 69 141 83 178 74 190 -20 24 -34 15 -57
-34z"/>
<path d="M4553 4962 c-13 -26 -48 -99 -78 -162 -46 -97 -53 -117 -41 -128 13
-14 49 -5 47 11 0 4 30 71 68 149 63 131 68 144 53 161 -8 9 -18 17 -21 17 -3
0 -16 -22 -28 -48z"/>
<path d="M4629 4883 c-13 -27 -28 -51 -32 -54 -5 -3 -8 -8 -7 -10 2 -6 -15
-49 -47 -114 -31 -65 -32 -85 -3 -85 14 0 35 33 81 128 34 70 63 132 64 137 1
6 -6 18 -15 28 -16 16 -18 15 -41 -30z"/>
<path d="M4680 4763 c-67 -167 -80 -195 -107 -231 -32 -42 -129 -90 -170 -83
-7 1 -19 -11 -26 -26 -27 -52 -100 -300 -123 -418 -2 -11 -6 -31 -9 -45 -6
-28 -14 -87 -20 -140 -2 -19 -7 -60 -11 -90 -11 -93 -13 -390 -2 -396 10 -7
140 55 146 69 2 4 8 7 14 7 17 0 135 88 187 140 26 26 65 70 87 96 21 27 44
52 49 56 6 4 6 8 2 8 -5 0 1 12 12 26 41 52 121 240 135 316 3 13 5 23 6 23 1
0 3 11 5 25 2 14 6 43 10 65 6 44 7 215 1 255 -2 14 -6 43 -10 65 -11 83 -109
333 -136 350 -4 3 -22 -30 -40 -72z m27 -440 c5 -39 4 -203 -2 -233 -3 -14 -8
-38 -11 -55 -13 -76 -66 -194 -109 -241 -5 -6 -19 -22 -31 -35 -47 -54 -149
-119 -186 -119 -24 0 -37 118 -26 247 1 24 5 43 8 43 3 0 6 14 7 31 4 49 71
172 132 240 52 58 198 166 209 154 3 -2 6 -17 9 -32z"/>
<path d="M4618 4219 c-18 -28 -31 -52 -28 -53 3 0 -4 -14 -16 -31 -18 -26 -83
-156 -85 -170 0 -2 -14 -35 -31 -72 -17 -38 -41 -99 -54 -138 l-24 -70 24 30
c20 25 160 288 162 304 0 4 8 24 18 46 24 56 76 205 71 205 -2 0 -19 -23 -37
-51z"/>
<path d="M2809 4378 c-6 -139 8 -279 37 -366 8 -23 14 -47 14 -53 0 -13 90
-202 99 -209 4 -3 18 -23 31 -45 63 -104 213 -242 341 -314 79 -44 82 -43 74
37 -3 37 -8 74 -10 82 -2 8 -6 33 -10 55 -3 22 -15 78 -26 125 -11 47 -19 87
-18 90 1 3 -8 24 -20 48 -12 23 -18 42 -14 42 4 0 2 5 -5 12 -7 7 -12 18 -12
25 0 7 -16 47 -35 88 -28 61 -39 75 -57 76 -97 3 -196 42 -260 102 -38 35
-109 172 -112 213 -2 36 -16 29 -17 -8z m264 -413 c99 -47 165 -134 185 -243
12 -69 0 -81 -61 -54 -94 42 -170 152 -183 266 -4 31 -4 56 -1 56 4 0 30 -11
60 -25z"/>
<path d="M3075 3884 c21 -33 42 -60 46 -62 5 -2 9 -8 9 -13 0 -5 11 -22 24
-37 13 -15 33 -38 44 -52 11 -14 23 -22 27 -18 4 4 -7 25 -24 46 -17 22 -31
43 -31 47 0 10 -100 129 -117 139 -8 4 2 -18 22 -50z"/>
<path d="M1575 3904 c-96 -19 -102 -21 -173 -56 -155 -75 -305 -221 -420 -410
-39 -64 -92 -163 -92 -172 0 -7 1022 10 1140 19 80 7 89 9 104 30 12 16 12 22
-1 42 -9 13 -22 23 -29 23 -8 0 -14 3 -14 8 0 7 -51 31 -125 59 -22 8 -49 18
-60 23 -11 4 -40 13 -65 20 -25 7 -58 16 -74 21 -36 11 -48 3 -15 -10 13 -5
44 -17 69 -26 67 -26 219 -102 236 -119 12 -13 -6 -14 -153 -11 -93 2 -316 7
-498 10 -181 4 -332 9 -334 11 -21 21 218 303 271 320 10 3 18 10 18 15 0 5 7
9 15 9 8 0 15 3 15 8 0 9 81 46 156 72 41 15 74 18 134 15 44 -2 85 -7 92 -11
7 -5 21 -10 31 -11 27 -4 139 -63 278 -146 321 -191 594 -300 859 -342 14 -2
34 -6 46 -9 15 -3 182 -17 224 -18 37 -1 112 3 109 6 -4 4 -22 7 -139 21 -58
7 -275 52 -300 62 -8 3 -18 6 -21 5 -4 -1 -31 8 -60 19 -30 11 -61 22 -70 24
-9 2 -37 13 -62 24 -25 12 -48 21 -51 21 -9 0 -152 69 -160 77 -4 5 -11 8 -15
8 -13 0 -201 110 -201 117 0 5 -5 8 -10 8 -6 0 -51 27 -100 60 -49 33 -94 60
-99 60 -5 0 -11 3 -13 8 -10 23 -231 118 -249 107 -5 -4 -9 -2 -9 2 0 5 -8 9
-17 10 -10 0 -38 3 -63 5 -25 3 -72 -1 -105 -8z"/>
<path d="M6008 3915 c-2 -2 -26 -6 -54 -9 -51 -5 -160 -43 -224 -79 -19 -11
-55 -31 -80 -45 -25 -14 -48 -30 -52 -36 -5 -6 -8 -7 -8 -1 0 7 -3 7 -8 0 -20
-28 -248 -162 -397 -234 -171 -83 -403 -167 -515 -187 -14 -2 -47 -9 -75 -14
-27 -6 -66 -12 -85 -14 -19 -2 -36 -9 -38 -16 -8 -23 216 0 393 42 150 35 465
153 515 194 8 6 26 15 40 19 14 4 27 11 30 15 3 4 30 20 60 37 30 17 89 50
130 75 108 64 217 116 276 132 48 13 154 14 199 3 47 -12 127 -48 181 -83 97
-61 300 -282 312 -339 3 -13 -19 -15 -140 -16 -79 0 -208 -2 -288 -4 -524 -14
-571 -14 -564 -4 7 11 185 101 267 134 66 27 59 36 -10 13 -32 -10 -65 -20
-73 -22 -8 -2 -22 -6 -30 -9 -76 -29 -116 -41 -122 -39 -5 1 -8 -2 -8 -7 0 -5
-11 -12 -24 -15 -13 -3 -37 -19 -54 -34 -41 -38 -34 -67 16 -78 52 -10 278
-17 934 -29 l277 -5 -12 27 c-61 137 -163 287 -263 387 -110 109 -234 185
-360 219 -59 17 -139 28 -146 22z"/>
<path d="M2418 3194 c-3 -5 -11 -26 -17 -46 -11 -34 -14 -36 -46 -32 -19 2
-37 0 -40 -6 -3 -5 -2 -10 3 -10 5 0 20 -10 34 -23 23 -22 24 -25 11 -62 -7
-21 -12 -40 -10 -41 2 -2 19 7 38 20 l34 24 33 -25 c18 -14 35 -23 37 -22 2 2
-3 22 -10 44 -15 42 -9 59 26 70 32 10 22 32 -13 31 -29 -1 -35 4 -54 43 -11
25 -23 40 -26 35z"/>
<path d="M5767 3161 c-9 -23 -20 -42 -24 -42 -5 -1 -21 -3 -38 -4 -16 -2 -32
-3 -34 -4 -2 -1 9 -11 25 -23 47 -35 48 -36 34 -53 -7 -8 -10 -15 -6 -15 3 0
1 -11 -4 -25 -9 -24 -9 -25 12 -14 13 7 29 18 36 26 12 12 19 10 47 -11 18
-14 35 -23 37 -20 8 7 -3 54 -12 54 -20 0 -1 37 29 56 36 23 32 33 -12 28 -24
-2 -49 19 -52 46 0 3 -5 13 -11 24 -10 16 -13 14 -27 -23z"/>
<path d="M1074 3142 c-6 -4 -10 -83 -9 -207 1 -221 -5 -260 -42 -292 -20 -18
-34 -21 -74 -18 -27 3 -49 1 -50 -3 0 -4 -2 -17 -5 -30 -5 -28 23 -41 81 -38
53 3 84 14 111 40 48 44 53 76 51 322 l-2 229 -26 2 c-14 1 -30 -2 -35 -5z"/>
<path d="M2195 3142 c-3 -3 -5 -51 -5 -107 l0 -102 -37 18 c-49 24 -78 28
-128 17 -119 -27 -180 -210 -108 -327 55 -88 162 -113 242 -57 l36 26 5 -22
c5 -17 13 -23 35 -23 l30 0 1 288 c0 158 -2 287 -5 288 -27 5 -62 5 -66 1z
m-56 -248 c36 -21 51 -58 51 -127 0 -100 -37 -147 -118 -149 -17 -1 -38 6 -47
16 -9 9 -20 16 -24 16 -14 0 -39 94 -35 130 11 104 96 160 173 114z"/>
<path d="M3496 3143 c-3 -4 -6 -53 -6 -110 0 -62 -4 -103 -10 -103 -5 0 -10 4
-10 9 0 23 -110 42 -155 27 -5 -2 -12 -3 -15 -2 -13 2 -74 -63 -92 -99 -44
-85 -17 -225 55 -279 56 -43 156 -41 204 4 28 25 31 25 35 -2 2 -18 9 -23 33
-23 l30 0 1 288 c1 158 -1 288 -5 288 -31 6 -60 7 -65 2z m-55 -250 c34 -20
49 -58 49 -126 0 -76 -17 -114 -63 -136 -114 -56 -204 87 -138 219 30 59 94
77 152 43z"/>
<path d="M5944 3136 c-2 -6 -2 -139 -1 -296 l2 -285 35 0 35 0 2 295 1 295
-35 1 c-19 0 -37 -4 -39 -10z"/>
<path d="M4809 3133 c-21 -5 -83 -109 -73 -124 8 -14 55 10 82 43 15 18 35 41
45 50 15 16 15 19 2 23 -31 10 -40 11 -56 8z"/>
<path d="M5073 3078 c-20 -5 -33 -15 -34 -26 -1 -9 -2 -30 -3 -47 -1 -23 -6
-30 -22 -31 -31 -2 -41 -11 -40 -36 1 -17 8 -24 31 -28 l30 -5 1 -137 c2 -177
12 -198 101 -213 17 -3 43 -1 56 4 19 8 23 15 20 35 -4 21 -11 26 -34 26 -56
0 -65 22 -64 160 l0 125 47 3 c37 2 48 7 53 24 9 27 -7 41 -52 43 -21 1 -41 3
-44 4 -4 0 -6 21 -5 46 2 58 -2 64 -41 53z"/>
<path d="M5768 2972 c-10 -2 -18 -11 -19 -20 -3 -57 -4 -370 -1 -384 3 -13 13
-17 41 -14 l36 3 0 197 c0 109 -2 201 -5 205 -8 11 -33 18 -52 13z"/>
<path d="M1305 2958 c-48 -17 -55 -26 -43 -53 10 -22 12 -22 44 -9 56 23 101
18 135 -15 18 -18 27 -35 23 -45 -6 -16 -8 -17 -59 -21 -115 -9 -184 -66 -180
-152 3 -96 117 -140 212 -82 28 18 33 18 33 5 0 -17 3 -18 47 -20 l27 -1 -3
95 c-6 220 -6 216 -31 253 -13 20 -27 34 -31 31 -4 -2 -9 1 -11 8 -5 15 -124
19 -163 6z m159 -245 c-4 -60 -37 -96 -91 -98 -42 -2 -59 10 -69 49 -13 54 39
93 127 95 l37 1 -4 -47z"/>
<path d="M1772 2950 c-18 -11 -36 -28 -40 -38 -5 -13 -8 -10 -12 13 -4 25 -10
30 -35 30 l-30 0 -1 -197 c0 -109 2 -199 5 -199 31 -6 61 -6 65 0 3 4 6 63 7
130 1 84 6 132 16 152 15 30 45 52 76 55 9 1 21 2 26 3 4 0 8 16 7 34 -1 26
-6 32 -26 35 -14 1 -40 -7 -58 -18z"/>
<path d="M2386 2772 c1 -108 2 -202 3 -208 0 -6 17 -11 36 -12 27 -1 35 3 36
16 4 106 0 382 -5 391 -4 6 -22 11 -39 11 l-32 0 1 -198z"/>
<path d="M2735 2963 c-11 -3 -34 -16 -52 -29 -39 -29 -40 -29 -39 -1 1 18 -5
23 -31 25 -26 3 -33 -1 -34 -15 -2 -64 3 -378 6 -383 2 -4 19 -7 37 -6 l33 1
1 136 c2 142 8 168 47 194 55 36 115 18 136 -41 7 -19 12 -75 11 -126 -2 -179
-5 -167 38 -164 l37 2 -1 149 c0 164 -11 208 -60 240 -27 17 -96 27 -129 18z"/>
<path d="M3774 2951 c-81 -44 -114 -105 -110 -207 5 -125 73 -189 201 -187 38
1 79 4 90 6 11 3 23 6 28 6 4 1 7 15 7 31 0 29 -2 30 -32 24 -102 -18 -154 -8
-192 37 -30 36 -35 79 -8 80 9 0 69 1 132 2 68 1 118 5 123 11 10 14 -1 100
-16 130 -39 74 -149 108 -223 67z m134 -61 c13 -10 26 -35 29 -55 l6 -35 -103
0 -102 0 6 28 c4 15 20 39 37 55 36 33 92 36 127 7z"/>
<path d="M4155 2954 c-33 -17 -58 -43 -63 -64 -10 -40 -9 -49 3 -73 7 -14 11
-27 9 -30 -2 -2 29 -21 70 -41 57 -29 77 -44 85 -67 9 -25 7 -31 -17 -49 -21
-17 -35 -20 -71 -15 -25 3 -51 10 -57 16 -12 10 -26 -2 -37 -33 -14 -38 118
-58 190 -28 43 19 62 43 70 91 5 36 -23 96 -48 104 -10 4 -19 11 -19 16 0 5
-7 9 -15 9 -23 0 -84 32 -90 47 -3 8 -2 25 1 39 7 28 58 42 102 26 34 -12 47
-6 55 26 3 13 3 21 0 18 -4 -3 -12 -1 -19 5 -22 18 -116 20 -149 3z"/>
<path d="M4675 2944 c-55 -28 -95 -107 -96 -185 -2 -130 82 -210 211 -203 98
5 125 16 118 50 -3 14 -11 18 -28 16 -77 -9 -148 -4 -172 12 -26 17 -66 91
-55 102 3 3 66 7 139 7 129 1 133 2 140 24 8 31 -9 102 -34 139 -42 62 -145
79 -223 38z m136 -44 c21 -12 49 -60 49 -85 0 -12 -16 -15 -100 -15 -110 0
-114 3 -84 61 22 44 89 63 135 39z"/>
<path d="M5384 2957 c-58 -23 -109 -76 -122 -127 -13 -49 -9 -120 8 -158 36
-81 93 -115 188 -115 130 0 212 87 207 220 -5 110 -76 183 -187 189 -35 2 -76
-2 -94 -9z m155 -81 c54 -52 58 -160 8 -217 -43 -50 -99 -60 -150 -26 -80 52
-79 211 0 259 42 25 107 18 142 -16z"/>
<path d="M6224 2956 c-49 -21 -92 -74 -105 -131 -39 -158 34 -264 184 -268 61
-1 124 7 134 17 3 2 2 18 -2 35 -6 26 -9 29 -25 21 -35 -19 -116 -19 -158 0
-30 14 -43 28 -56 60 -9 23 -14 45 -11 49 4 3 68 6 143 6 l136 0 1 40 c1 22
-3 45 -7 51 -5 7 -7 16 -6 21 5 16 -45 81 -72 94 -36 17 -120 20 -156 5z m130
-68 c15 -13 29 -38 32 -55 l7 -33 -103 0 -102 0 6 31 c14 73 105 105 160 57z"/>
<path d="M6602 2953 c-43 -21 -64 -53 -64 -98 0 -52 25 -82 100 -118 59 -28
67 -36 70 -63 2 -19 -3 -36 -13 -44 -22 -18 -82 -20 -121 -4 -28 12 -33 11
-38 -2 -19 -49 -5 -61 80 -69 97 -8 161 30 171 102 7 57 -16 96 -74 124 -105
49 -127 83 -78 115 25 16 65 16 107 -1 13 -5 19 0 24 20 4 15 2 31 -4 37 -19
19 -123 20 -160 1z"/>
<path d="M1033 2433 c4 -3 48 -7 99 -9 51 -2 163 -6 248 -9 1162 -41 2956 -50
4160 -20 885 23 1068 29 1078 39 3 4 -1254 6 -2793 6 -1539 0 -2795 -3 -2792
-7z"/>
<path d="M6630 2429 c0 -5 5 -7 10 -4 6 3 10 8 10 11 0 2 -4 4 -10 4 -5 0 -10
-5 -10 -11z"/>
<path d="M6668 2433 c7 -3 16 -2 19 1 4 3 -2 6 -13 5 -11 0 -14 -3 -6 -6z"/>
</g>
</svg>
